<svg id="Layer_1" data-name="Layer 1" xmlns="http://www.w3.org/2000/svg" viewBox="0 0 521.69 786.42"><defs><style>.cls-1{fill:#c0203c;}</style></defs><title>logo_vred</title><path class="cls-1" d="M473,522.49l-24.6-8.42c-10.49,30.66-63.82,53-146.32,61.31-69.12,7-153.09,2.34-199.68-11C28.41,543.28,35,509.88,35.73,507a7.94,7.94,0,0,0,.47-2.08c0-.08,2.79-8.18,32-20.66,10.27-4.39,20.43-7.86,27-9.94,33.06,36,76.13,54.76,126.34,54.76,83.58,0,142.58-21.61,175.36-64.22A128.43,128.43,0,0,0,413,437.29a127.4,127.4,0,0,0,11.43,17.17c12,15.24,23.44,19.38,32.3,19.38a28.57,28.57,0,0,0,6.62-.78c12-2.85,22.11-12.89,30.79-30.58,1.39,3.24,3,6.5,4.76,9.74l22.76-12.56c-11.77-21.32-12.09-45.07-12.09-45.27a13,13,0,0,0-25.74-2.57c-6.09,29.86-19,54.17-26.5,56-2,.46-6.41-1.72-12.49-9.42-22.31-28.26-22.77-57.06-15.77-74.58,4.63-11.57,12.77-19.25,21.77-20.54,23.34-3.34,33.25,25.39,33.65,26.61l12.35-4.07,12.36-4c-5.7-17.56-26-49.41-62-44.26-18.33,2.62-34.12,16.31-42.24,36.63a81.17,81.17,0,0,0-4.52,16l-.8,0c0,.87-.06,1.83-.1,2.85-.06,2-.13,4.22-.25,6.66,0,.67-.08,1.33-.11,2C397,419.85,381.83,503.11,221.51,503.11c-53.54,0-96-24-126.24-71.21C72,395.52,65,358.32,64.91,358l-.06-.31c-6.83-33.1-8-55.71-3.73-73.31,4.72-19.55,16.59-33,37.34-42.49,73.92-33.63,206.22-36.11,288.9-5.42,29.71,11,40.26,23.41,40.23,31.33,0,8.1-11,20.7-41.74,31.8-26.65,9.63-75.69,17.4-122,19.34-56,2.34-101.59-3.44-128.42-16.3-9.94-4.76-15.91-10.44-15.59-14.83.39-5.34,10.12-18.24,44.19-28.83,51.24-15.93,120.38-8.88,150.59,2.33,7.85,2.91,9.61,6,9.61,6.5,0,1.31-3.5,6.35-14.17,10.2-18.55,6.7-78.8,9.75-99.75,3.82,11.25-3.35,29-3.11,39.29.71l9-24.37c-16.74-6.21-42.13-6.28-59.07-.16-18.88,6.82-21.75,17.81-21.77,23.76s2.7,16.85,21.24,23.73c24.27,9,95.2,5.88,119.85-3,19.55-7.06,31.27-20,31.33-34.54,0-6.34-2.51-22.05-26.56-31-19.12-7.1-46.77-11.85-75.84-13-23.6-1-58.62,0-91.51,10.25-38.68,12-60.84,30.41-62.4,51.77-.67,9.26,2.37,26.79,30.29,40.16,29.23,14,72.18,19.31,116.16,19.3,60.63,0,123.2-10.08,154.37-21.35,17.92-6.48,32-14.23,41.92-23.06,14-12.47,16.95-24.87,17-33.07s-2.77-20.4-16.35-32.81c-9.6-8.77-23.34-16.51-40.83-23C359,198.17,309.35,190,258.1,189.05c.24-.52.49-1,.75-1.46l33.6-24.81.08-.06c1.66-1.25,40.71-31.16,40.71-79.59a83.13,83.13,0,1,0-159.19,33.59L196,107A59.14,59.14,0,1,1,309.25,83.13c0,35.9-30.27,59.73-31.12,60.39l-36.47,26.93-1,1.3c-3.76,4.83-6.28,11.31-8,17.44-56.08,1.63-107.28,11.83-145,29C59.46,231,42.5,250.67,35.84,278.24c-5.19,21.49-4.1,47.57,3.52,84.54.63,3.37,8.36,42.68,33.54,82.38,1.63,2.58,3.32,5.08,5,7.54-6.17,2.16-13.42,4.88-20.77,8-29.09,12.55-43.92,25.13-46.52,39.52-1.2,4.57-4,19.63,5.45,37.4,12.07,22.78,38.71,40.2,79.17,51.76,34.51,9.86,86,15.24,138.66,15.24,23.86,0,47.95-1.11,70.77-3.4C346.89,597,382.31,589.17,409.94,578,443.88,564.21,465.09,545.54,473,522.49Z"/><path class="cls-1" d="M284.88,83.13a34.76,34.76,0,1,0-34.76,34.76A34.8,34.8,0,0,0,284.88,83.13Zm-45.51,0a10.76,10.76,0,1,1,10.76,10.76A10.77,10.77,0,0,1,239.36,83.13Z"/><path class="cls-1" d="M49.86,644,51,696.1q0,1.9.09,4.32c0,1.61.11,3.36.19,5.28l1.52,31.94-1-3-3-8.73-6.68-18.76-3.15-8.62L20.71,649.8,0,653.91,53.26,784.75l16.65-3.3-.3-141.35Z"/><path class="cls-1" d="M111.26,634.58,97.77,775.89l20.53-2.46,2-26.88,24.25-2.9,8.21,25.66,21.05-2.52-46-134.19ZM139.33,727l-18,2.15,1.12-15.87c.63-9.47,1.09-18.55,1.38-27,.13-3.94.22-7.87.26-11.78,2.85,11.64,5.92,22.77,9.16,33.23Z"/><path class="cls-1" d="M229.19,625.64,231,677.73c.27,7.5.91,15.6,1.91,24.07q.33,2.78.72,5.71c-2.91-9.18-6-18-9.27-26.5l-20.47-54.47-19.62.69,4.9,138.62,21-.74-3.13-60.58q-.09-2.56-.21-4.6c-.08-1.35-.16-2.52-.26-3.47l-1.53-16.38q.82,2.77,1.67,5.44c1.89,5.94,3.89,11.78,6,17.36l23,61.33,19.71-.7-4.9-138.62Z"/><path class="cls-1" d="M323.18,625c-14.33-.58-25.38,5.21-32.83,17.2-7.29,11.72-11.48,30-12.46,54.42-.91,22.6,1.93,40,8.45,51.66,6.65,11.92,17.24,18.26,31.46,18.83l1.47,0a31,31,0,0,0,14.18-3.28l.78-.4.81-20-2.15.85c-4.07,1.62-7.54,2.39-10.3,2.27-8-.32-13.76-4.4-17.49-12.47-3.83-8.29-5.44-20.82-4.77-37.24a174.76,174.76,0,0,1,2.4-23.93,61.43,61.43,0,0,1,5-16.32,22,22,0,0,1,7.54-9,17.73,17.73,0,0,1,10.42-2.52c2.91.12,6.61,1.37,11,3.72L338.8,650l.8-19.71-.77-.46A33.11,33.11,0,0,0,323.18,625Z"/><polygon class="cls-1" points="391.35 632.51 370.19 630.16 354.92 768.02 405.77 773.66 407.81 755.3 378.11 752.01 391.35 632.51"/><polygon class="cls-1" points="425.85 776.88 476.57 786.41 479.98 768.26 450.18 762.66 458.19 720.09 484.62 725.06 488.03 706.91 461.6 701.94 468.99 662.65 498.79 668.25 502.2 650.1 451.49 640.56 425.85 776.88"/></svg>